<svg xmlns="http://www.w3.org/2000/svg" width="200" height="200" viewBox="0 0 200 200">
  <!-- 背景 -->
  <rect width="200" height="200" fill="#f5f5f5"/>
  
  <!-- TikTok 图标 -->
  <g transform="translate(50, 40)">
    <!-- 音符形状 -->
    <path d="M80,40 C80,20 65,0 40,0 C15,0 0,20 0,40 C0,70 20,100 40,100 C60,100 80,70 80,40 Z" fill="#000000"/>
    
    <!-- 音符内部 -->
    <path d="M60,30 C60,20 50,10 40,10 C30,10 20,20 20,30 C20,50 30,70 40,70 C50,70 60,50 60,30 Z" fill="#69c9d0"/>
    
    <!-- 音符装饰 -->
    <path d="M90,20 L100,10 L100,30 L90,40 L90,20 Z" fill="#ee1d52"/>
    <path d="M70,50 L80,40 L80,60 L70,70 L70,50 Z" fill="#ee1d52"/>
  </g>
  
  <!-- TikTok 文字 -->
  <text x="100" y="160" font-family="Arial, sans-serif" font-size="16" font-weight="bold" text-anchor="middle" fill="#000000">TikTok 账号</text>
</svg>